<svg width="32" height="32" viewBox="0 0 32 32" fill="none" xmlns="http://www.w3.org/2000/svg">
<path d="M14.9286 3.14286H17.0714C17.2619 3.14286 17.3571 3.23809 17.3571 3.42857V28.5714C17.3571 28.7619 17.2619 28.8571 17.0714 28.8571H14.9286C14.7381 28.8571 14.6429 28.7619 14.6429 28.5714V3.42857C14.6429 3.23809 14.7381 3.14286 14.9286 3.14286Z" fill="black"/>
<path d="M4 14.6429H28C28.1905 14.6429 28.2857 14.7381 28.2857 14.9286V17.0714C28.2857 17.2619 28.1905 17.3571 28 17.3571H4C3.80952 17.3571 3.71429 17.2619 3.71429 17.0714V14.9286C3.71429 14.7381 3.80952 14.6429 4 14.6429Z" fill="black"/>
</svg>
