<svg width="16" height="15" viewBox="0 0 16 15" fill="none" xmlns="http://www.w3.org/2000/svg">
<path d="M15.1424 13.9218L10.2731 9.05246C11.0287 8.07559 11.4375 6.88122 11.4375 5.62498C11.4375 4.12123 10.8506 2.71124 9.78933 1.64812C8.72809 0.584997 7.31434 0 5.81248 0C4.31061 0 2.89686 0.586872 1.83562 1.64812C0.772497 2.70936 0.1875 4.12123 0.1875 5.62498C0.1875 7.12684 0.774372 8.54059 1.83562 9.60183C2.89686 10.665 4.30873 11.25 5.81248 11.25C7.06872 11.25 8.26122 10.8412 9.23809 10.0875L14.1074 14.9549C14.1217 14.9692 14.1387 14.9806 14.1573 14.9883C14.176 14.996 14.196 15 14.2162 15C14.2364 15 14.2564 14.996 14.275 14.9883C14.2937 14.9806 14.3107 14.9692 14.3249 14.9549L15.1424 14.1393C15.1567 14.125 15.1681 14.1081 15.1758 14.0894C15.1835 14.0708 15.1875 14.0508 15.1875 14.0306C15.1875 14.0104 15.1835 13.9904 15.1758 13.9717C15.1681 13.953 15.1567 13.9361 15.1424 13.9218ZM8.78246 8.59496C7.98747 9.38808 6.93372 9.82496 5.81248 9.82496C4.69123 9.82496 3.63749 9.38808 2.84249 8.59496C2.04937 7.79997 1.61249 6.74622 1.61249 5.62498C1.61249 4.50373 2.04937 3.44811 2.84249 2.65499C3.63749 1.86187 4.69123 1.42499 5.81248 1.42499C6.93372 1.42499 7.98934 1.85999 8.78246 2.65499C9.57558 3.44999 10.0125 4.50373 10.0125 5.62498C10.0125 6.74622 9.57558 7.80184 8.78246 8.59496Z" fill="white"/>
</svg>
